<?xml version="1.0" encoding="utf-8"?>
<!-- Generator: Adobe Illustrator 25.2.3, SVG Export Plug-In . SVG Version: 6.00 Build 0)  -->
<svg version="1.1" id="Layer_1" xmlns="http://www.w3.org/2000/svg" xmlns:xlink="http://www.w3.org/1999/xlink" x="0px" y="0px"
	 viewBox="0 0 59.5 59" style="enable-background:new 0 0 59.5 59;" xml:space="preserve">
<style type="text/css">
	.st0{clip-path:url(#SVGID_2_);}
	.st1{fill:#F01871;}
	.st2{fill:url(#SVGID_3_);}
	.st3{fill:#343434;}
	.st4{fill:#8C8C8C;}
	.st5{fill:#3C3C3B;}
	.st6{fill:#141414;}
	.st7{fill:#393939;}
	.st8{fill:#002060;}
	.st9{fill:#4E87F7;}
	.st10{fill:#F3BA2F;}
	.st11{fill:#3E8445;}
	.st12{fill:url(#SVGID_4_);}
	.st13{fill:url(#SVGID_5_);}
	.st14{fill:url(#SVGID_6_);}
	.st15{fill-rule:evenodd;clip-rule:evenodd;fill:url(#SVGID_7_);}
	.st16{fill:#8247E5;}
	.st17{fill-rule:evenodd;clip-rule:evenodd;fill:url(#SVGID_8_);}
	.st18{fill-rule:evenodd;clip-rule:evenodd;fill:url(#SVGID_9_);}
	.st19{fill-rule:evenodd;clip-rule:evenodd;fill:url(#SVGID_10_);}
	.st20{fill-rule:evenodd;clip-rule:evenodd;fill:url(#SVGID_11_);}
	.st21{fill-rule:evenodd;clip-rule:evenodd;fill:#8C5EAC;}
	.st22{fill-rule:evenodd;clip-rule:evenodd;fill:url(#SVGID_12_);}
	.st23{fill:#FFFFFF;}
	.st24{fill-rule:evenodd;clip-rule:evenodd;fill:url(#SVGID_13_);}
	.st25{clip-path:url(#SVGID_15_);}
	.st26{fill-rule:evenodd;clip-rule:evenodd;fill:#8062B6;}
	.st27{fill:url(#SVGID_16_);}
	.st28{fill-rule:evenodd;clip-rule:evenodd;fill:#8162B6;}
	.st29{fill-rule:evenodd;clip-rule:evenodd;fill:#AE4F8F;}
	.st30{fill-rule:evenodd;clip-rule:evenodd;fill:#A85194;}
	.st31{fill:url(#SVGID_17_);}
	.st32{fill:url(#SVGID_18_);}
	.st33{fill:url(#SVGID_19_);}
	.st34{fill-rule:evenodd;clip-rule:evenodd;fill:#9A58A1;}
	.st35{fill:#283044;}
	.st36{fill:#E6007A;}
	.st37{fill:#ED1B6C;}
</style>
<g>
	<path class="st10" d="M18.2,24.8l11.6-11.5l11.6,11.5l6.7-6.7L29.8,0L11.5,18.1L18.2,24.8L18.2,24.8z M0,29.5l6.7-6.7l6.7,6.7
		l-6.7,6.7L0,29.5z M18.2,34.2l11.6,11.5l11.6-11.5l6.7,6.7l0,0L29.8,59L11.5,40.9l0,0L18.2,34.2L18.2,34.2z M46.1,29.5l6.7-6.7
		l6.7,6.7l-6.7,6.7L46.1,29.5z"/>
	<path class="st10" d="M36.6,29.5L36.6,29.5l-6.8-6.8l-5,5l-0.6,0.6l-1.2,1.2l0,0l0,0l6.8,6.8L36.6,29.5L36.6,29.5L36.6,29.5"/>
</g>
</svg>
