<?xml version="1.0" encoding="utf-8"?>
<!-- Generator: Adobe Illustrator 25.2.3, SVG Export Plug-In . SVG Version: 6.00 Build 0)  -->
<svg version="1.1" id="Layer_1" xmlns="http://www.w3.org/2000/svg" xmlns:xlink="http://www.w3.org/1999/xlink" x="0px" y="0px"
	 viewBox="0 0 47.4 62.4" style="enable-background:new 0 0 47.4 62.4;" xml:space="preserve">
<style type="text/css">
	.st0{clip-path:url(#SVGID_2_);}
	.st1{fill:#F01871;}
	.st2{fill:url(#SVGID_3_);}
	.st3{fill:#343434;}
	.st4{fill:#8C8C8C;}
	.st5{fill:#3C3C3B;}
	.st6{fill:#141414;}
	.st7{fill:#393939;}
	.st8{fill:#002060;}
	.st9{fill:#4E87F7;}
	.st10{fill:#F3BA2F;}
	.st11{fill:#3E8445;}
	.st12{fill:url(#SVGID_4_);}
	.st13{fill:url(#SVGID_5_);}
	.st14{fill:url(#SVGID_6_);}
	.st15{fill-rule:evenodd;clip-rule:evenodd;fill:url(#SVGID_7_);}
	.st16{fill:#8247E5;}
	.st17{fill-rule:evenodd;clip-rule:evenodd;fill:url(#SVGID_8_);}
	.st18{fill-rule:evenodd;clip-rule:evenodd;fill:url(#SVGID_9_);}
	.st19{fill-rule:evenodd;clip-rule:evenodd;fill:url(#SVGID_10_);}
	.st20{fill-rule:evenodd;clip-rule:evenodd;fill:url(#SVGID_11_);}
	.st21{fill-rule:evenodd;clip-rule:evenodd;fill:#8C5EAC;}
	.st22{fill-rule:evenodd;clip-rule:evenodd;fill:url(#SVGID_12_);}
	.st23{fill:#FFFFFF;}
	.st24{fill-rule:evenodd;clip-rule:evenodd;fill:url(#SVGID_13_);}
	.st25{clip-path:url(#SVGID_15_);}
	.st26{fill-rule:evenodd;clip-rule:evenodd;fill:#8062B6;}
	.st27{fill:url(#SVGID_16_);}
	.st28{fill-rule:evenodd;clip-rule:evenodd;fill:#8162B6;}
	.st29{fill-rule:evenodd;clip-rule:evenodd;fill:#AE4F8F;}
	.st30{fill-rule:evenodd;clip-rule:evenodd;fill:#A85194;}
	.st31{fill:url(#SVGID_17_);}
	.st32{fill:url(#SVGID_18_);}
	.st33{fill:url(#SVGID_19_);}
	.st34{fill-rule:evenodd;clip-rule:evenodd;fill:#9A58A1;}
	.st35{fill:#283044;}
	.st36{fill:#E6007A;}
	.st37{fill:#ED1B6C;}
</style>
<g>
	<path class="st35" d="M23.7,0C10.7,0,0,10.6,0,23.7c0,2.6,0.4,5.2,1.3,7.7c0.6,1.7,2.4,2.6,4.2,2.1c1.7-0.6,2.6-2.4,2.1-4.2
		c-0.7-1.9-1-4-0.9-6.1C6.8,14.3,14,7.1,22.8,6.6c9.8-0.5,18,7.3,18,17c0,9.1-7.1,16.5-16.1,17c0,0-3.3,0.2-5,0.4
		c-0.8,0.1-1.4,0.3-1.9,0.3c-0.2,0.1-0.4-0.1-0.3-0.3l0.6-2.8l3.1-14.2c0.4-1.8-0.8-3.5-2.5-3.9c-1.8-0.4-3.5,0.8-3.9,2.5
		c0,0-7.4,34.5-7.5,34.8c-0.4,1.8,0.8,3.5,2.5,3.9c1.8,0.4,3.5-0.8,3.9-2.5c0.1-0.4,1.1-5,1.1-5c0.8-3.5,3.6-6.1,7-6.5
		c0.8-0.1,3.7-0.3,3.7-0.3c12.2-0.9,21.9-11.2,21.9-23.6C47.4,10.6,36.7,0,23.7,0z"/>
	<path class="st36" d="M25.4,54.5c-2.1-0.4-4.3,0.9-4.7,3.1c-0.4,2.1,0.9,4.3,3.1,4.7c2.1,0.4,4.3-0.9,4.7-3.1
		C28.9,57,27.6,55,25.4,54.5z"/>
</g>
</svg>
