<?xml version="1.0" encoding="utf-8"?>
<!-- Generator: Adobe Illustrator 25.2.3, SVG Export Plug-In . SVG Version: 6.00 Build 0)  -->
<svg version="1.1" id="Layer_1" xmlns="http://www.w3.org/2000/svg" xmlns:xlink="http://www.w3.org/1999/xlink" x="0px" y="0px"
	 viewBox="0 0 57 50.3" style="enable-background:new 0 0 57 50.3;" xml:space="preserve">
<style type="text/css">
	.st0{clip-path:url(#SVGID_2_);}
	.st1{fill:#F01871;}
	.st2{fill:url(#SVGID_3_);}
	.st3{fill:#343434;}
	.st4{fill:#8C8C8C;}
	.st5{fill:#3C3C3B;}
	.st6{fill:#141414;}
	.st7{fill:#393939;}
	.st8{fill:#002060;}
	.st9{fill:#4E87F7;}
	.st10{fill:#F3BA2F;}
	.st11{fill:#3E8445;}
	.st12{fill:url(#SVGID_4_);}
	.st13{fill:url(#SVGID_5_);}
	.st14{fill:url(#SVGID_6_);}
	.st15{fill-rule:evenodd;clip-rule:evenodd;fill:url(#SVGID_7_);}
	.st16{fill:#8247E5;}
	.st17{fill-rule:evenodd;clip-rule:evenodd;fill:url(#SVGID_8_);}
	.st18{fill-rule:evenodd;clip-rule:evenodd;fill:url(#SVGID_9_);}
	.st19{fill-rule:evenodd;clip-rule:evenodd;fill:url(#SVGID_10_);}
	.st20{fill-rule:evenodd;clip-rule:evenodd;fill:url(#SVGID_11_);}
	.st21{fill-rule:evenodd;clip-rule:evenodd;fill:#8C5EAC;}
	.st22{fill-rule:evenodd;clip-rule:evenodd;fill:url(#SVGID_12_);}
	.st23{fill:#FFFFFF;}
	.st24{fill-rule:evenodd;clip-rule:evenodd;fill:url(#SVGID_13_);}
	.st25{clip-path:url(#SVGID_15_);}
	.st26{fill-rule:evenodd;clip-rule:evenodd;fill:#8062B6;}
	.st27{fill:url(#SVGID_16_);}
	.st28{fill-rule:evenodd;clip-rule:evenodd;fill:#8162B6;}
	.st29{fill-rule:evenodd;clip-rule:evenodd;fill:#AE4F8F;}
	.st30{fill-rule:evenodd;clip-rule:evenodd;fill:#A85194;}
	.st31{fill:url(#SVGID_17_);}
	.st32{fill:url(#SVGID_18_);}
	.st33{fill:url(#SVGID_19_);}
	.st34{fill-rule:evenodd;clip-rule:evenodd;fill:#9A58A1;}
	.st35{fill:#283044;}
	.st36{fill:#E6007A;}
	.st37{fill:#ED1B6C;}
</style>
<path class="st16" d="M43.2,15.4c-1-0.6-2.4-0.6-3.6,0l-8.3,4.9l-5.7,3.1l-8.2,4.9c-1,0.6-2.4,0.6-3.6,0l-6.4-3.9
	c-1-0.6-1.8-1.8-1.8-3.1v-7.5c0-1.2,0.6-2.4,1.8-3.1L13.8,7c1-0.6,2.4-0.6,3.6,0l6.4,3.9c1,0.6,1.8,1.8,1.8,3.1v4.9l5.7-3.3v-5.1
	c0-1.2-0.6-2.4-1.8-3.1l-11.9-7c-1-0.6-2.4-0.6-3.6,0L1.8,7.6C0.6,8.2,0,9.4,0,10.6v14c0,1.2,0.6,2.4,1.8,3.1l12.1,7
	c1,0.6,2.4,0.6,3.6,0l8.2-4.8l5.7-3.3l8.2-4.8c1-0.6,2.4-0.6,3.6,0l6.4,3.7c1,0.6,1.8,1.8,1.8,3.1v7.5c0,1.2-0.6,2.4-1.8,3.1
	l-6.3,3.7c-1,0.6-2.4,0.6-3.6,0l-6.4-3.7c-1-0.6-1.8-1.8-1.8-3.1v-4.8l-5.7,3.3v4.9c0,1.2,0.6,2.4,1.8,3.1l12.1,7
	c1,0.6,2.4,0.6,3.6,0l12.1-7c1-0.6,1.8-1.8,1.8-3.1V25.5c0-1.2-0.6-2.4-1.8-3.1L43.2,15.4z"/>
</svg>
