<?xml version="1.0" encoding="utf-8"?>
<!-- Generator: Adobe Illustrator 25.2.3, SVG Export Plug-In . SVG Version: 6.00 Build 0)  -->
<svg version="1.1" id="Layer_1" xmlns="http://www.w3.org/2000/svg" xmlns:xlink="http://www.w3.org/1999/xlink" x="0px" y="0px"
	 viewBox="0 0 57 44.6" style="enable-background:new 0 0 57 44.6;" xml:space="preserve">
<style type="text/css">
	.st0{clip-path:url(#SVGID_2_);}
	.st1{fill:#F01871;}
	.st2{fill:url(#SVGID_3_);}
	.st3{fill:#343434;}
	.st4{fill:#8C8C8C;}
	.st5{fill:#3C3C3B;}
	.st6{fill:#141414;}
	.st7{fill:#393939;}
	.st8{fill:#002060;}
	.st9{fill:#4E87F7;}
	.st10{fill:#F3BA2F;}
	.st11{fill:#3E8445;}
	.st12{fill:url(#SVGID_4_);}
	.st13{fill:url(#SVGID_5_);}
	.st14{fill:url(#SVGID_6_);}
	.st15{fill-rule:evenodd;clip-rule:evenodd;fill:url(#SVGID_7_);}
	.st16{fill:#8247E5;}
	.st17{fill-rule:evenodd;clip-rule:evenodd;fill:url(#SVGID_8_);}
	.st18{fill-rule:evenodd;clip-rule:evenodd;fill:url(#SVGID_9_);}
	.st19{fill-rule:evenodd;clip-rule:evenodd;fill:url(#SVGID_10_);}
	.st20{fill-rule:evenodd;clip-rule:evenodd;fill:url(#SVGID_11_);}
	.st21{fill-rule:evenodd;clip-rule:evenodd;fill:#8C5EAC;}
	.st22{fill-rule:evenodd;clip-rule:evenodd;fill:url(#SVGID_12_);}
	.st23{fill:#FFFFFF;}
	.st24{fill-rule:evenodd;clip-rule:evenodd;fill:url(#SVGID_13_);}
	.st25{clip-path:url(#SVGID_15_);}
	.st26{fill-rule:evenodd;clip-rule:evenodd;fill:#8062B6;}
	.st27{fill:url(#SVGID_16_);}
	.st28{fill-rule:evenodd;clip-rule:evenodd;fill:#8162B6;}
	.st29{fill-rule:evenodd;clip-rule:evenodd;fill:#AE4F8F;}
	.st30{fill-rule:evenodd;clip-rule:evenodd;fill:#A85194;}
	.st31{fill:url(#SVGID_17_);}
	.st32{fill:url(#SVGID_18_);}
	.st33{fill:url(#SVGID_19_);}
	.st34{fill-rule:evenodd;clip-rule:evenodd;fill:#9A58A1;}
	.st35{fill:#283044;}
	.st36{fill:#E6007A;}
	.st37{fill:#ED1B6C;}
</style>
<g>
	
		<linearGradient id="SVGID_2_" gradientUnits="userSpaceOnUse" x1="598.7683" y1="862.1082" x2="548.5883" y2="765.8982" gradientTransform="matrix(0.6266 0 0 -0.6266 -323.4866 534.8188)">
		<stop  offset="0" style="stop-color:#00FFA3"/>
		<stop  offset="1" style="stop-color:#DC1FFF"/>
	</linearGradient>
	<path style="fill:url(#SVGID_2_);" d="M9.3,34.1c0.3-0.3,0.8-0.5,1.3-0.5h45.5c0.8,0,1.2,1,0.7,1.6l-9,9c-0.3,0.3-0.8,0.5-1.3,0.5
		H0.9c-0.8,0-1.2-1-0.7-1.6L9.3,34.1z"/>
	
		<linearGradient id="SVGID_3_" gradientUnits="userSpaceOnUse" x1="576.8262" y1="873.5525" x2="526.6462" y2="777.3416" gradientTransform="matrix(0.6266 0 0 -0.6266 -323.4866 534.8188)">
		<stop  offset="0" style="stop-color:#00FFA3"/>
		<stop  offset="1" style="stop-color:#DC1FFF"/>
	</linearGradient>
	<path class="st2" d="M9.3,0.5C9.6,0.2,10.1,0,10.6,0h45.5c0.8,0,1.2,1,0.7,1.6l-9,9c-0.3,0.3-0.8,0.5-1.3,0.5H0.9
		c-0.8,0-1.2-1-0.7-1.6L9.3,0.5z"/>
	
		<linearGradient id="SVGID_4_" gradientUnits="userSpaceOnUse" x1="587.7224" y1="867.8699" x2="537.5424" y2="771.6589" gradientTransform="matrix(0.6266 0 0 -0.6266 -323.4866 534.8188)">
		<stop  offset="0" style="stop-color:#00FFA3"/>
		<stop  offset="1" style="stop-color:#DC1FFF"/>
	</linearGradient>
	<path class="st12" d="M47.8,17.2c-0.3-0.3-0.8-0.5-1.3-0.5H0.9c-0.8,0-1.2,1-0.7,1.6l9,9c0.3,0.3,0.8,0.5,1.3,0.5h45.5
		c0.8,0,1.2-1,0.7-1.6L47.8,17.2z"/>
</g>
</svg>
